<?xml version="1.0" encoding="UTF-8" standalone="no"?>
<!-- Created with Inkscape (http://www.inkscape.org/) -->

<svg
   version="1.1"
   id="svg2"
   xml:space="preserve"
   width="192"
   height="192"
   viewBox="0 0 192 192"
   xmlns="http://www.w3.org/2000/svg"
   xmlns:svg="http://www.w3.org/2000/svg"><defs
     id="defs6" /><g
     id="g8"
     transform="matrix(1.3333333,0,0,-1.3333333,0,192)"><g
       id="g10"
       transform="scale(0.1)"><path
         d="m 1227.32,212.719 h -216.48 v 375.633 c 0,110.82 -47.113,145 -107.883,145 -64.23,0 -127.219,-48.34 -127.219,-147.762 V 212.719 H 559.254 v 687.734 h 208.195 v -95.285 h 2.762 c 20.949,42.34 94.074,114.621 205.773,114.621 120.796,0 251.336,-71.656 251.336,-281.719 z M 320.961,996.277 c -68.938,0 -124.816,52.463 -124.816,124.263 0,71.8 55.878,124.32 124.816,124.32 68.93,0 124.812,-52.52 124.812,-124.32 0,-71.8 -55.882,-124.263 -124.812,-124.263 z M 429.203,213.238 H 212.719 V 900.984 H 429.203 Z M 1333.74,1440 H 106.301 C 47.5898,1440 0.00390625,1392.41 0.00390625,1333.7 V 106.301 C 0.00390625,47.5898 47.5898,0 106.301,0 H 1333.74 c 58.71,0 106.3,47.5898 106.3,106.301 V 1333.7 c 0,58.71 -47.59,106.3 -106.3,106.3"
         style="fill:#4873c2;fill-opacity:1;fill-rule:nonzero;stroke:none"
         id="path12" /></g><path
       style="fill:#000000;stroke-width:0.25"
       d="m 10.681815,191.51326 c -4.8690203,-1.17912 -9.2737547,-5.71472 -10.28257128,-10.58807 -0.3890333,-1.87932 -0.3890333,-167.971059 0,-169.850385 C 1.4423167,6.035971 6.035971,1.4423167 11.074805,0.39924372 c 1.879326,-0.38903331 167.971065,-0.38903331 169.850385,0 4.91103,1.01661628 9.24241,5.20723048 10.58097,10.23709228 0.31374,1.17893 0.36331,12.715995 0.36587,85.163859 0.002,59.844425 -0.0754,84.178915 -0.27127,85.124995 -1.04589,5.0524 -5.62317,9.62968 -10.67557,10.67557 -2.06993,0.42848 -168.465812,0.34296 -170.243375,-0.0875 z M 57.313167,117.6875 57.376337,71.875 H 42.875667 28.375 v 45.87703 45.87703 L 42.8125,163.56453 57.25,163.5 Z m 46.063883,20.75 c 0.001,-15.64545 0.0996,-26.03989 0.25958,-27.4375 0.36432,-3.18309 0.85296,-4.90734 2.15611,-7.60813 2.07918,-4.30915 6.07771,-7.56912 10.58226,-8.627628 1.90711,-0.448145 5.91461,-0.506185 7.80019,-0.112972 4.3743,0.912202 7.71991,4.189852 9.28739,9.09873 1.14232,3.5774 1.16242,4.14423 1.16242,32.78275 V 163.625 h 14.5 14.5 l -0.004,-30.1875 C 163.618,115.41141 163.51739,102.2932 163.37024,100.875 161.61213,83.933535 152.35339,72.974387 137.25,69.958037 c -3.15522,-0.630137 -10.66122,-0.63888 -13.54792,-0.01578 -6.40494,1.382525 -12.02082,4.379688 -16.48528,8.798095 -1.25576,1.242805 -2.83076,3.103395 -3.5,4.134645 L 102.5,84.75 102.4333,78.3125 102.3666,71.875 H 88.49578 74.625 v 45.875 45.875 H 89 103.375 l 0.002,-25.1875 z M 48.2476,58.272475 C 53.2338,56.56442 56.811947,53.028397 58.557805,48.08365 59.428667,45.617132 59.62743,41.534027 59.01142,38.765185 57.766277,33.1685 53.541262,28.578042 47.973642,26.772695 44.777712,25.736387 40.41599,25.825772 37.04135,26.996727 29.356412,29.6633 24.907592,37.60349 26.464015,45.875 c 1.14525,6.08635 5.85683,11.110967 11.964867,12.75981 2.7195,0.73412 7.08858,0.57289 9.818718,-0.362335 z"
       id="path355"
       transform="matrix(0.75000002,0,0,-0.75000002,0,144)" /></g></svg>
